<?xml version="1.0" encoding="UTF-8" standalone="no"?>
<svg xmlns:rdf="http://www.w3.org/1999/02/22-rdf-syntax-ns#" xmlns="http://www.w3.org/2000/svg" xml:space="preserve" height="276.25" viewBox="0 0 276.25299 276.24701" width="276.25" version="1.1" y="0px" x="0px" xmlns:cc="http://creativecommons.org/ns#" xmlns:dc="http://purl.org/dc/elements/1.1/"><g transform="translate(-25.686 -1.6125)"><rect height="274.25" width="274.25" y="2.608" x="26.691" fill="#ec2024"/><path d="m228.78 95.3c9.639-12.917 6.68-29.841-5.666-39.079-12.387-9.209-29.424-7.237-39.106 5.711l-32.806 44.043v-28.377c0-16.145-12.474-27.926-27.904-27.926-15.432 0-27.903 11.781-27.903 27.926v124.27c0 16.027 12.471 27.808 27.903 27.808 15.431 0 27.904-11.422 27.904-27.808l0.041-37.017 66.291 74.902c-15.982 8.61-34.245 13.484-53.693 13.484-62.696 0-113.56-50.832-113.56-113.56 0-62.702 50.859-113.53 113.56-113.53 62.698 0 113.56 50.832 113.56 113.53 0 22.994-6.851 44.371-18.603 62.252l-59.58-67.04 29.56-39.59" fill="#fff"/><path d="m228.78 95.3c9.639-12.917 6.68-29.841-5.666-39.079-12.387-9.209-29.424-7.237-39.106 5.711l-32.806 44.043v-28.377c0-16.145-12.474-27.926-27.904-27.926-15.432 0-27.903 11.781-27.903 27.926v124.27c0 16.027 12.471 27.808 27.903 27.808 15.431 0 27.904-11.422 27.904-27.808l0.041-37.017 66.291 74.902c-15.982 8.61-34.245 13.484-53.693 13.484-62.696 0-113.56-50.832-113.56-113.56 0-62.702 50.859-113.53 113.56-113.53 62.698 0 113.56 50.832 113.56 113.53 0 22.994-6.851 44.371-18.603 62.252l-59.58-67.04 29.56-39.59z" stroke="#004b8d" stroke-width="3.8043" fill="none"/></g></svg>
